<?xml version="1.0" encoding="UTF-8" standalone="no"?>
<!DOCTYPE svg PUBLIC "-//W3C//DTD SVG 20010904//EN" "http://www.w3.org/TR/2001/REC-SVG-20010904/DTD/svg10.dtd">
<svg version="1.0" xmlns="http://www.w3.org/2000/svg" width="1280.000000pt" height="640.000000pt" viewBox="0 0 1280.000000 640.000000" preserveAspectRatio="xMidYMid meet" pwa-launched="true" pwa-extension-id="b13fe0a4-4fc4-4d10-9d4b-48de82616b87" pwa-extension-url-root="moz-extension://b13fe0a4-4fc4-4d10-9d4b-48de82616b87/">
<g transform="translate(0.000000,640.000000) scale(0.100000,-0.100000)" fill="#000000" stroke="none">
<path d="M9534 5620 c-115 -10 -189 -31 -242 -70 -87 -63 -94 -92 -96 -435 -2 -286 -1 -301 47 -352 11 -12 53 -36 94 -53 78 -33 360 -96 476 -107 45 -4 67 -10 65 -18 -2 -7 -177 -211 -391 -453 l-387 -442 -59 0 c-38 0 -63 5 -70 14 -15 18 0 28 31 21 35 -8 53 11 49 51 -1 14 -221 112 -431 192 -85 32 -180 71 -210 87 -104 52 -223 138 -314 228 -56 55 -112 100 -148 118 -93 47 -221 80 -336 86 -56 3 -108 11 -116 17 -8 6 -44 49 -81 96 -81 104 -190 217 -228 237 -39 20 -148 39 -302 53 -143 12 -135 9 -188 94 -20 33 -43 52 -83 72 l-56 27 -306 -16 c-988 -52 -1531 -86 -1550 -96 -14 -7 -107 -11 -281 -11 l-260 0 -3 63 -3 62 -138 3 -137 3 0 -50 c0 -87 21 -81 -275 -81 -145 0 -270 3 -279 6 -13 5 -16 23 -16 88 -1 122 -12 162 -56 208 -52 52 -121 102 -164 117 -104 36 -774 66 -1130 50 -232 -10 -298 -27 -370 -97 -64 -63 -69 -93 -73 -417 -3 -255 -3 -261 20 -307 19 -40 32 -51 86 -77 71 -34 164 -60 322 -91 61 -12 114 -26 119 -30 5 -5 -22 -24 -60 -43 -38 -19 -80 -43 -93 -54 l-24 -19 36 -57 c34 -53 38 -68 57 -209 25 -196 40 -393 33 -447 -5 -33 -11 -45 -30 -52 -31 -11 -413 -12 -432 0 -11 7 -10 24 8 102 53 243 51 310 -21 554 -25 87 -43 169 -46 217 l-5 77 -46 10 c-195 42 -1195 39 -1391 -4 -62 -14 -27 -24 88 -27 l117 -3 0 -1285 0 -1285 -117 -3 c-65 -1 -118 -7 -118 -11 0 -56 1203 -71 1416 -18 l49 12 7 67 c4 36 33 142 64 234 56 166 57 170 51 254 -4 47 -24 159 -45 250 -27 113 -36 169 -29 178 14 17 436 17 459 0 9 -7 18 -26 21 -43 8 -41 -9 -266 -33 -451 -20 -151 -25 -269 -14 -311 6 -23 80 -60 177 -87 31 -9 57 -20 57 -25 0 -4 -82 -11 -182 -14 -279 -10 -361 -30 -439 -108 -53 -53 -59 -97 -61 -414 -2 -288 0 -303 50 -348 38 -34 167 -78 337 -115 l170 -37 440 0 c473 1 562 8 663 57 81 38 116 129 128 325 l7 112 61 5 c34 3 131 13 216 21 85 8 183 15 216 15 70 0 74 -4 74 -76 l0 -44 140 0 140 0 0 60 c0 41 4 60 13 61 6 0 122 0 257 0 289 -2 1007 -37 1760 -87 135 -9 276 -14 313 -11 89 8 164 42 206 96 l33 41 121 0 c142 1 256 14 294 34 41 21 124 107 220 229 50 62 94 109 107 111 11 3 62 7 111 10 172 9 367 84 437 167 50 60 161 152 249 207 80 50 162 89 317 147 200 75 411 168 423 187 9 14 -1 48 -15 50 -6 1 -24 2 -40 2 -36 1 -45 23 -14 35 29 10 174 20 185 12 9 -6 118 -130 516 -584 120 -136 215 -252 212 -257 -3 -6 -50 -10 -103 -10 -155 0 -315 -18 -378 -41 -79 -30 -138 -86 -154 -147 -16 -60 -23 -598 -8 -627 39 -76 138 -121 381 -173 l172 -37 420 0 c791 0 806 10 805 534 0 284 0 283 -93 358 -105 85 -123 90 -392 114 -71 6 -133 13 -137 16 -5 2 -8 218 -8 479 l0 474 23 9 c35 13 463 41 883 57 163 7 172 6 177 -12 22 -74 48 -229 42 -252 -3 -15 -29 -62 -57 -104 l-50 -78 11 -146 c7 -81 9 -150 4 -154 -4 -4 -57 -13 -118 -19 -111 -11 -250 -42 -267 -59 -11 -11 0 -42 16 -42 6 0 39 9 74 20 85 27 289 47 305 31 19 -19 16 -215 -5 -281 -30 -93 -17 -90 -190 -47 -84 21 -165 37 -180 37 l-26 0 20 -52 c14 -36 23 -89 27 -162 l6 -108 211 1 211 2 6 -30 7 -31 103 0 c263 0 785 35 804 53 6 7 18 34 27 61 14 42 15 67 6 195 -11 144 -30 1215 -22 1238 2 6 42 17 90 24 76 11 95 19 159 61 77 52 102 81 123 139 11 30 10 50 -5 125 -21 109 -34 141 -71 176 -34 31 -132 71 -222 88 -34 7 -65 18 -70 24 -10 14 4 1034 17 1227 9 122 8 155 -4 197 -8 27 -21 54 -28 60 -24 20 -421 48 -766 54 l-135 2 -14 -33 -13 -34 -210 7 -209 7 0 -89 c0 -77 -6 -115 -36 -221 -7 -23 -6 -24 32 -17 21 4 98 21 170 38 72 17 138 29 146 26 9 -4 25 -40 38 -90 19 -68 21 -99 17 -172 -3 -49 -10 -93 -15 -98 -13 -13 -214 9 -299 34 -76 22 -107 19 -101 -9 4 -23 133 -56 278 -72 57 -6 108 -15 113 -20 5 -5 4 -66 -3 -141 -6 -72 -9 -143 -6 -157 4 -13 27 -54 51 -91 25 -37 47 -81 51 -97 7 -37 -40 -255 -58 -267 -7 -4 -74 -5 -148 -3 -492 19 -888 37 -903 41 -16 5 -17 35 -15 497 l3 492 130 8 c161 9 294 31 345 57 60 31 85 65 110 149 21 71 23 93 21 330 -2 293 0 286 -98 363 -102 79 -105 81 -338 104 -181 18 -860 28 -1011 14z m356 -1654 c0 -179 -3 -327 -7 -329 -8 -5 -252 8 -360 18 -40 4 -63 11 -63 19 0 7 46 80 102 162 56 82 148 218 205 302 57 83 108 152 113 152 6 0 10 -125 10 -324z m-5 -1543 c0 -184 -4 -304 -10 -304 -15 -3 -390 560 -380 570 10 9 315 40 365 38 l25 -2 0 -302z"/>
</g>
</svg>